<svg width="40" height="40" viewBox="0 0 40 40" fill="none" xmlns="http://www.w3.org/2000/svg">
<path d="M10.333 28.0488V31.8837M11.6081 17.8289V11.4439C11.6081 10.0326 12.7517 8.88892 14.1631 8.88892H26.9379C28.3493 8.88892 29.4929 10.0326 29.4929 11.4439V17.8289" stroke="black" stroke-width="1.5" stroke-linecap="round" stroke-linejoin="round"/>
<path d="M30.7677 28.0486V31.8835M30.1303 17.8287C28.3685 17.8287 26.9377 19.2595 26.9377 21.0212V22.9386H14.1628V21.0212C14.1628 19.2595 12.7321 17.8287 10.9703 17.8287C9.20862 17.8287 7.77783 19.2595 7.77783 21.0212C7.77783 22.5396 8.84849 23.8439 10.3328 24.1504V28.0486H30.7726V24.1504C32.5003 23.8001 33.6196 22.1113 33.2692 20.3837C32.9675 18.8945 31.6584 17.8239 30.1351 17.8239L30.1303 17.8287Z" stroke="black" stroke-width="1.5" stroke-linecap="round" stroke-linejoin="round"/>
</svg>
