<svg width="40" height="40" viewBox="0 0 40 40" fill="none" xmlns="http://www.w3.org/2000/svg">
<path d="M3.51025 26.9144V30.5221M4.70981 17.2996V11.2926C4.70981 9.96485 5.78574 8.88892 7.1135 8.88892H32.8674C34.1952 8.88892 35.271 9.96485 35.271 11.2926V17.2996" stroke="black" stroke-width="1.5" stroke-linecap="round" stroke-linejoin="round"/>
<path d="M36.4753 26.9143V30.5221M35.8756 17.2996C34.2182 17.2996 32.8721 18.6456 32.8721 20.303V22.1069H7.11827V20.303C7.11827 18.6456 5.77221 17.2996 4.11481 17.2996C2.45739 17.2996 1.11133 18.6456 1.11133 20.303C1.11133 21.7315 2.11859 22.9585 3.51502 23.2469V26.9143H36.48V23.2469C38.1053 22.9173 39.1583 21.3286 38.8287 19.7033C38.5449 18.3023 37.3132 17.2949 35.8802 17.2949L35.8756 17.2996Z" stroke="black" stroke-width="1.5" stroke-linecap="round" stroke-linejoin="round"/>
</svg>
